<mxfile host="app.diagrams.net" modified="2024-02-06T19:55:42.466Z" agent="Mozilla/5.0 (Windows NT 10.0; Win64; x64) AppleWebKit/537.36 (KHTML, like Gecko) Chrome/121.0.0.0 Safari/537.36" etag="eOxuiRzseUTl7_Jep7cG" version="23.1.1" type="device">
  <diagram name="Page-1" id="rl-4UQA1Pmw6HM4O_nap">
    <mxGraphModel dx="1290" dy="522" grid="1" gridSize="10" guides="1" tooltips="1" connect="1" arrows="1" fold="1" page="1" pageScale="1" pageWidth="850" pageHeight="1100" math="0" shadow="0">
      <root>
        <mxCell id="0" />
        <mxCell id="1" parent="0" />
        <mxCell id="0T8bfKuUfGjD47ifJaWb-1" value="Actor" style="shape=umlActor;verticalLabelPosition=bottom;verticalAlign=top;html=1;outlineConnect=0;" vertex="1" parent="1">
          <mxGeometry x="90" y="100" width="30" height="60" as="geometry" />
        </mxCell>
        <mxCell id="0T8bfKuUfGjD47ifJaWb-2" value="" style="rounded=0;whiteSpace=wrap;html=1;" vertex="1" parent="1">
          <mxGeometry x="180" y="50" width="300" height="250" as="geometry" />
        </mxCell>
        <mxCell id="0T8bfKuUfGjD47ifJaWb-6" value="Guest Name" style="rounded=0;whiteSpace=wrap;html=1;" vertex="1" parent="1">
          <mxGeometry x="190" y="70" width="80" height="40" as="geometry" />
        </mxCell>
        <mxCell id="0T8bfKuUfGjD47ifJaWb-7" value="Reservation Date" style="rounded=0;whiteSpace=wrap;html=1;" vertex="1" parent="1">
          <mxGeometry x="330" y="70" width="80" height="40" as="geometry" />
        </mxCell>
        <mxCell id="0T8bfKuUfGjD47ifJaWb-8" value="Room Selected" style="rounded=0;whiteSpace=wrap;html=1;" vertex="1" parent="1">
          <mxGeometry x="330" y="140" width="80" height="40" as="geometry" />
        </mxCell>
        <mxCell id="0T8bfKuUfGjD47ifJaWb-9" value="Check Availability Btn" style="rounded=0;whiteSpace=wrap;html=1;" vertex="1" parent="1">
          <mxGeometry x="330" y="210" width="80" height="40" as="geometry" />
        </mxCell>
        <mxCell id="0T8bfKuUfGjD47ifJaWb-10" value="" style="endArrow=classic;html=1;rounded=0;exitX=0.5;exitY=1;exitDx=0;exitDy=0;" edge="1" parent="1" source="0T8bfKuUfGjD47ifJaWb-2" target="0T8bfKuUfGjD47ifJaWb-11">
          <mxGeometry width="50" height="50" relative="1" as="geometry">
            <mxPoint x="350" y="380" as="sourcePoint" />
            <mxPoint x="330" y="350" as="targetPoint" />
          </mxGeometry>
        </mxCell>
        <mxCell id="0T8bfKuUfGjD47ifJaWb-11" value="" style="whiteSpace=wrap;html=1;aspect=fixed;" vertex="1" parent="1">
          <mxGeometry x="180" y="360" width="300" height="300" as="geometry" />
        </mxCell>
        <mxCell id="0T8bfKuUfGjD47ifJaWb-12" value="Room Available" style="rounded=0;whiteSpace=wrap;html=1;" vertex="1" parent="1">
          <mxGeometry x="190" y="380" width="120" height="60" as="geometry" />
        </mxCell>
        <mxCell id="0T8bfKuUfGjD47ifJaWb-13" value="Total Cost" style="rounded=0;whiteSpace=wrap;html=1;" vertex="1" parent="1">
          <mxGeometry x="340" y="470" width="120" height="60" as="geometry" />
        </mxCell>
        <mxCell id="0T8bfKuUfGjD47ifJaWb-14" value="Confirm Booking Btn" style="rounded=0;whiteSpace=wrap;html=1;" vertex="1" parent="1">
          <mxGeometry x="270" y="550" width="120" height="60" as="geometry" />
        </mxCell>
        <mxCell id="0T8bfKuUfGjD47ifJaWb-15" value="Reservation Details" style="rounded=0;whiteSpace=wrap;html=1;" vertex="1" parent="1">
          <mxGeometry x="340" y="380" width="120" height="60" as="geometry" />
        </mxCell>
        <mxCell id="0T8bfKuUfGjD47ifJaWb-16" value="" style="whiteSpace=wrap;html=1;aspect=fixed;" vertex="1" parent="1">
          <mxGeometry x="560" y="60" width="230" height="230" as="geometry" />
        </mxCell>
        <mxCell id="0T8bfKuUfGjD47ifJaWb-17" value="Room Unavailable" style="rounded=0;whiteSpace=wrap;html=1;" vertex="1" parent="1">
          <mxGeometry x="615" y="120" width="120" height="60" as="geometry" />
        </mxCell>
        <mxCell id="0T8bfKuUfGjD47ifJaWb-18" value="" style="endArrow=classic;html=1;rounded=0;entryX=0;entryY=0.25;entryDx=0;entryDy=0;exitX=1;exitY=0.25;exitDx=0;exitDy=0;" edge="1" parent="1" source="0T8bfKuUfGjD47ifJaWb-2" target="0T8bfKuUfGjD47ifJaWb-16">
          <mxGeometry width="50" height="50" relative="1" as="geometry">
            <mxPoint x="400" y="340" as="sourcePoint" />
            <mxPoint x="450" y="290" as="targetPoint" />
          </mxGeometry>
        </mxCell>
        <mxCell id="0T8bfKuUfGjD47ifJaWb-19" value="" style="edgeStyle=segmentEdgeStyle;endArrow=classic;html=1;curved=0;rounded=0;endSize=8;startSize=8;entryX=0.75;entryY=1;entryDx=0;entryDy=0;exitX=0.579;exitY=1.003;exitDx=0;exitDy=0;exitPerimeter=0;" edge="1" parent="1" source="0T8bfKuUfGjD47ifJaWb-16" target="0T8bfKuUfGjD47ifJaWb-2">
          <mxGeometry width="50" height="50" relative="1" as="geometry">
            <mxPoint x="700" y="330" as="sourcePoint" />
            <mxPoint x="450" y="290" as="targetPoint" />
            <Array as="points">
              <mxPoint x="693" y="340" />
              <mxPoint x="405" y="340" />
            </Array>
          </mxGeometry>
        </mxCell>
        <mxCell id="0T8bfKuUfGjD47ifJaWb-20" value="" style="endArrow=classic;html=1;rounded=0;exitX=0.5;exitY=1;exitDx=0;exitDy=0;entryX=0.5;entryY=0;entryDx=0;entryDy=0;" edge="1" parent="1" source="0T8bfKuUfGjD47ifJaWb-11" target="0T8bfKuUfGjD47ifJaWb-25">
          <mxGeometry width="50" height="50" relative="1" as="geometry">
            <mxPoint x="400" y="700" as="sourcePoint" />
            <mxPoint x="450" y="650" as="targetPoint" />
          </mxGeometry>
        </mxCell>
        <mxCell id="0T8bfKuUfGjD47ifJaWb-21" value="" style="whiteSpace=wrap;html=1;aspect=fixed;" vertex="1" parent="1">
          <mxGeometry x="552.5" y="700" width="245" height="245" as="geometry" />
        </mxCell>
        <mxCell id="0T8bfKuUfGjD47ifJaWb-22" value="Confirmation Page" style="rounded=0;whiteSpace=wrap;html=1;" vertex="1" parent="1">
          <mxGeometry x="615" y="710" width="120" height="60" as="geometry" />
        </mxCell>
        <mxCell id="0T8bfKuUfGjD47ifJaWb-23" value="Room Reservation Details" style="rounded=0;whiteSpace=wrap;html=1;" vertex="1" parent="1">
          <mxGeometry x="615" y="810" width="120" height="60" as="geometry" />
        </mxCell>
        <mxCell id="0T8bfKuUfGjD47ifJaWb-25" value="" style="whiteSpace=wrap;html=1;aspect=fixed;" vertex="1" parent="1">
          <mxGeometry x="180" y="700" width="300" height="300" as="geometry" />
        </mxCell>
        <mxCell id="0T8bfKuUfGjD47ifJaWb-26" value="Payment Page" style="rounded=1;whiteSpace=wrap;html=1;" vertex="1" parent="1">
          <mxGeometry x="270" y="710" width="120" height="60" as="geometry" />
        </mxCell>
        <mxCell id="0T8bfKuUfGjD47ifJaWb-27" value="Card Type" style="rounded=1;whiteSpace=wrap;html=1;" vertex="1" parent="1">
          <mxGeometry x="190" y="780" width="120" height="60" as="geometry" />
        </mxCell>
        <mxCell id="0T8bfKuUfGjD47ifJaWb-28" value="Card Number" style="rounded=1;whiteSpace=wrap;html=1;" vertex="1" parent="1">
          <mxGeometry x="190" y="850" width="120" height="60" as="geometry" />
        </mxCell>
        <mxCell id="0T8bfKuUfGjD47ifJaWb-29" value="CVS/Pin" style="rounded=1;whiteSpace=wrap;html=1;" vertex="1" parent="1">
          <mxGeometry x="350" y="850" width="120" height="60" as="geometry" />
        </mxCell>
        <mxCell id="0T8bfKuUfGjD47ifJaWb-30" value="Zipcode (if applicable)" style="rounded=1;whiteSpace=wrap;html=1;" vertex="1" parent="1">
          <mxGeometry x="350" y="780" width="120" height="60" as="geometry" />
        </mxCell>
        <mxCell id="0T8bfKuUfGjD47ifJaWb-31" value="Process Btn" style="rounded=1;whiteSpace=wrap;html=1;" vertex="1" parent="1">
          <mxGeometry x="190" y="920" width="280" height="60" as="geometry" />
        </mxCell>
        <mxCell id="0T8bfKuUfGjD47ifJaWb-32" value="" style="endArrow=classic;html=1;rounded=0;exitX=1;exitY=0.5;exitDx=0;exitDy=0;entryX=0.022;entryY=0.609;entryDx=0;entryDy=0;entryPerimeter=0;" edge="1" parent="1" source="0T8bfKuUfGjD47ifJaWb-25" target="0T8bfKuUfGjD47ifJaWb-21">
          <mxGeometry width="50" height="50" relative="1" as="geometry">
            <mxPoint x="340" y="670" as="sourcePoint" />
            <mxPoint x="340" y="710" as="targetPoint" />
          </mxGeometry>
        </mxCell>
      </root>
    </mxGraphModel>
  </diagram>
</mxfile>
